<?xml version="1.0" standalone="no"?>
<!DOCTYPE svg PUBLIC "-//W3C//DTD SVG 20010904//EN"
 "http://www.w3.org/TR/2001/REC-SVG-20010904/DTD/svg10.dtd">
<svg version="1.0" xmlns="http://www.w3.org/2000/svg"
 width="300.000000pt" height="284.000000pt" viewBox="0 0 300.000000 284.000000"
 preserveAspectRatio="xMidYMid meet">
<metadata>
Created by potrace 1.10, written by Peter Selinger 2001-2011
</metadata>
<g transform="translate(0.000000,284.000000) scale(0.100000,-0.100000)"
fill="#000000" stroke="none">
<path d="M70 2828 c0 -5 210 -8 467 -8 256 0 464 2 461 5 -8 8 -928 11 -928 3z"/>
<path d="M1542 2825 c-18 -21 -20 -59 -2 -61 8 0 9 1 3 3 -17 6 -16 11 1 28 7
8 17 11 20 7 4 -3 4 2 0 12 -6 15 -4 17 6 11 9 -5 11 -4 6 3 -9 15 -18 15 -34
-3z"/>
<path d="M1630 2828 c0 -5 4 -8 9 -8 5 0 16 -3 24 -6 8 -3 17 2 20 10 5 12 -1
15 -23 13 -17 -1 -30 -5 -30 -9z"/>
<path d="M1895 2816 c2 -15 -1 -24 -6 -20 -16 10 -48 -6 -42 -22 6 -15 -14
-17 -57 -5 -17 5 -21 9 -12 15 7 4 21 4 32 1 11 -4 20 -2 20 4 0 6 -6 11 -12
12 -7 0 -23 2 -35 5 -14 2 -23 -2 -26 -14 -4 -13 -5 -11 -6 6 0 12 -6 22 -12
22 -6 0 -9 -7 -5 -15 3 -8 1 -15 -4 -15 -6 0 -10 4 -10 8 0 5 -7 9 -15 9 -8 0
-12 -4 -9 -9 3 -4 -4 -8 -15 -8 -12 0 -21 -4 -21 -9 0 -5 -9 -11 -20 -14 -11
-3 -20 -1 -20 4 0 5 7 9 15 9 8 0 15 5 15 10 0 7 -6 7 -19 1 -10 -6 -21 -7
-25 -4 -3 3 -6 -3 -6 -15 0 -12 -5 -22 -11 -22 -8 0 -7 -5 1 -15 7 -9 10 -18
6 -22 -3 -3 -6 -1 -6 5 0 7 -7 12 -16 12 -8 0 -13 4 -10 8 3 5 -1 9 -9 9 -8 0
-15 -4 -15 -9 0 -4 -8 -8 -17 -8 -15 0 -16 -2 -3 -10 12 -8 10 -10 -10 -11
-14 -1 -39 -3 -57 -5 -25 -3 -31 0 -27 11 4 11 11 12 24 5 9 -5 21 -6 25 -2 3
4 10 7 13 8 41 5 48 34 9 34 -12 0 -41 2 -64 4 -24 2 -43 -1 -43 -5 0 -5 19
-10 43 -10 30 -2 34 -3 14 -6 -21 -3 -29 -11 -34 -34 -5 -26 -9 -30 -29 -25
-14 4 -24 2 -24 -4 0 -5 -4 -10 -9 -10 -6 0 -9 9 -8 20 1 14 8 20 25 20 16 0
21 -4 16 -12 -5 -10 -4 -10 5 -2 17 15 3 44 -23 45 -20 0 -20 1 -1 9 14 6 15
9 4 9 -8 1 -20 -4 -27 -11 -9 -9 -12 -4 -12 22 0 40 -14 68 -24 51 -4 -6 -5
-15 -2 -20 3 -5 -4 -12 -17 -16 l-22 -8 23 -4 c13 -3 22 -12 22 -23 0 -19 -11
-23 -105 -35 -52 -7 -90 -26 -77 -40 4 -4 1 -6 -7 -3 -17 5 -24 38 -8 38 7 0
4 5 -6 11 -21 13 -26 10 -32 -20 -2 -11 1 -21 7 -21 6 0 0 -10 -13 -22 -16
-14 -18 -19 -7 -15 10 3 20 2 23 -3 4 -6 -4 -11 -17 -12 -13 0 -43 -2 -66 -4
-28 -2 -50 -10 -59 -21 -8 -10 -12 -12 -8 -5 4 7 -1 12 -14 12 -11 0 -26 -6
-33 -12 -7 -7 -33 -12 -57 -12 -27 1 -39 -1 -30 -7 11 -6 9 -10 -6 -15 -11 -5
-29 -16 -39 -26 -20 -18 -41 -25 -32 -10 6 9 -52 7 -62 -3 -4 -3 0 -10 7 -14
11 -7 11 -10 0 -14 -8 -3 -5 -6 8 -6 22 -1 40 -18 29 -28 -3 -3 -19 -6 -36 -5
-17 0 -45 -6 -63 -14 -24 -12 -26 -14 -7 -9 76 17 76 17 40 -4 -49 -28 -65
-26 -91 12 -13 17 -27 35 -32 38 -5 3 -8 10 -7 15 1 5 -3 10 -9 12 -17 6 -14
-2 24 -59 19 -30 34 -58 32 -63 -2 -5 -16 -11 -33 -13 -41 -6 -50 -19 -18 -27
20 -5 31 -3 40 8 13 18 38 22 32 5 -2 -6 -16 -18 -32 -27 -22 -13 -30 -14 -33
-4 -3 6 -11 12 -18 12 -8 0 -23 10 -35 22 -11 12 -23 19 -26 15 -4 -4 0 -15 9
-25 13 -14 14 -21 5 -30 -9 -9 -8 -12 5 -12 15 0 16 -4 7 -20 -6 -12 -21 -20
-35 -20 -14 0 -25 -4 -25 -10 0 -20 65 -3 76 19 11 21 12 21 17 2 3 -12 -2
-26 -12 -35 -20 -19 -41 -21 -41 -5 0 8 -4 8 -12 2 -7 -6 -28 -15 -47 -22 -27
-9 -40 -8 -64 4 -34 17 -47 19 -47 7 0 -5 21 -19 47 -32 43 -21 45 -24 28 -36
-11 -8 -22 -14 -27 -14 -4 0 -8 -4 -8 -10 0 -5 11 -9 25 -8 14 1 25 6 25 10 0
4 5 8 10 8 23 0 7 -18 -47 -53 -32 -21 -66 -36 -75 -33 -12 3 -15 -1 -10 -13
6 -18 8 -19 -66 38 -23 18 -42 29 -42 24 0 -13 44 -53 57 -53 14 0 38 -29 30
-36 -3 -4 -31 8 -61 25 -60 34 -66 36 -66 22 0 -5 21 -19 46 -31 31 -15 43
-27 40 -37 -4 -11 -1 -13 14 -8 28 9 43 -3 26 -21 -18 -17 -36 -18 -36 -1 0 8
-4 7 -10 -3 -7 -11 -4 -21 15 -37 14 -12 21 -24 16 -27 -18 -12 -66 7 -117 46
-30 22 -57 38 -60 35 -3 -3 20 -25 52 -49 l58 -43 -35 -6 c-35 -7 -27 -10 26
-13 17 -1 40 -7 52 -14 12 -6 29 -12 37 -12 9 0 16 -5 16 -11 0 -5 -4 -8 -9
-5 -5 3 -16 -5 -24 -18 -9 -13 -23 -31 -33 -41 -13 -13 -14 -19 -5 -25 10 -6
10 -12 2 -29 -14 -26 -27 -26 -86 -1 -58 25 -67 25 -36 0 l23 -20 -23 0 c-16
0 -20 -3 -12 -11 9 -9 57 -17 116 -18 24 -1 11 -21 -14 -21 -23 0 -24 -6 -5
-25 11 -12 16 -12 32 0 25 19 38 19 30 0 -8 -22 -1 -19 32 15 33 33 48 35 105
19 l37 -10 -27 -25 c-16 -14 -28 -35 -28 -46 0 -24 -31 -48 -62 -48 -13 0 -23
-4 -23 -8 0 -9 -36 -22 -112 -42 -27 -7 -48 -16 -48 -20 0 -12 117 17 183 45
63 27 83 25 67 -5 -11 -21 11 -74 38 -90 15 -8 14 -12 -13 -34 -35 -28 -28
-44 12 -28 15 6 54 14 86 18 47 5 57 4 57 -9 0 -18 -22 -24 -115 -33 -69 -6
-145 -30 -145 -46 0 -12 17 -10 48 6 36 18 132 30 132 16 0 -5 -4 -10 -10 -10
-5 0 -10 -8 -10 -17 1 -14 6 -11 27 12 14 16 28 25 30 19 2 -7 18 -10 39 -7
39 5 66 -11 57 -34 -4 -10 -2 -14 4 -10 6 4 23 0 39 -7 l27 -15 -26 -6 c-14
-4 -33 -18 -42 -31 -9 -14 -21 -22 -28 -18 -7 4 -9 4 -5 -1 4 -4 1 -14 -7 -22
-8 -8 -15 -19 -15 -24 0 -6 11 2 25 16 14 14 30 25 35 25 6 0 10 7 10 15 0 17
9 19 28 6 10 -6 9 -15 -8 -44 -12 -21 -18 -37 -12 -37 5 0 20 20 33 45 13 25
27 45 31 45 5 0 8 7 8 15 0 28 27 15 38 -17 10 -33 10 -33 11 -5 1 34 14 35
29 2 6 -14 16 -25 21 -25 15 0 23 18 11 25 -15 9 -12 25 6 25 8 0 12 5 9 10
-3 6 -1 10 4 10 6 0 11 5 11 11 0 7 -10 9 -25 7 -17 -4 -25 -1 -25 8 0 8 -11
14 -27 14 -25 1 -26 2 -10 14 9 7 17 19 17 27 -1 10 -4 9 -14 -3 -7 -10 -16
-18 -20 -18 -4 0 -6 8 -4 18 2 11 -3 16 -14 14 -11 -2 -18 3 -18 13 0 8 -5 15
-12 15 -6 0 -30 20 -54 45 -23 25 -47 45 -54 45 -7 0 -10 7 -7 18 19 59 35 93
54 109 11 10 51 54 89 98 115 135 227 235 313 280 17 9 29 20 26 24 -7 12 24
23 38 14 7 -3 9 -2 4 2 -7 9 107 75 129 75 6 0 31 9 55 20 24 11 55 20 69 20
14 0 39 8 55 17 17 9 55 20 85 24 30 4 91 13 135 19 63 10 97 10 165 0 47 -7
87 -16 90 -20 3 -4 39 -17 80 -28 121 -33 175 -56 252 -108 40 -27 77 -51 83
-53 5 -2 15 -9 22 -15 8 -6 19 -15 26 -21 7 -5 23 -19 37 -30 20 -17 22 -17
17 -3 -4 12 -2 15 9 11 7 -3 14 -11 14 -19 0 -8 6 -14 14 -14 17 0 103 -86
111 -111 3 -10 15 -21 26 -24 10 -4 19 -11 19 -16 0 -5 12 -28 27 -50 17 -26
26 -52 25 -74 -1 -25 3 -35 13 -35 17 0 20 -35 5 -45 -5 -3 -10 -15 -10 -26 0
-14 -7 -19 -26 -19 -15 0 -23 -4 -19 -11 4 -6 -1 -17 -11 -24 -27 -21 -10 -18
38 5 23 11 44 17 47 14 9 -8 -47 -54 -66 -54 -24 0 -113 -34 -113 -43 0 -5 10
-5 23 -1 48 15 94 24 134 24 44 0 63 17 63 57 0 24 58 76 88 79 30 4 81 64 54
64 -4 0 -13 -5 -19 -11 -18 -18 -27 10 -9 30 9 10 13 21 9 24 -3 4 -1 7 5 7 7
0 12 -6 12 -14 0 -19 19 -31 31 -19 6 6 -12 32 -51 70 -54 55 -79 95 -47 77 6
-4 5 1 -4 10 -13 14 -20 15 -48 5 l-34 -12 24 -18 c13 -10 20 -19 14 -18 -24
0 -44 26 -38 49 4 16 3 21 -5 16 -12 -7 -45 20 -55 47 -9 23 10 22 22 -1 5
-10 21 -24 36 -32 23 -12 28 -12 35 0 14 21 12 36 -2 22 -30 -30 -40 8 -10 41
16 19 16 20 -5 8 -21 -11 -28 -23 -24 -44 1 -5 -21 10 -49 34 -27 23 -50 46
-50 51 0 4 -4 8 -10 8 -37 0 24 -101 124 -205 89 -93 98 -125 46 -164 -17 -12
-34 -20 -38 -17 -9 5 -30 53 -57 129 -23 66 -149 215 -216 257 -30 18 -110 70
-179 115 -126 83 -171 103 -334 150 -142 41 -219 50 -317 36 -163 -23 -197
-29 -218 -40 -11 -6 -59 -23 -106 -36 -216 -63 -413 -207 -650 -478 -70 -79
-95 -122 -102 -174 -4 -36 -1 -42 76 -118 74 -73 96 -105 72 -105 -18 0 -99
75 -110 100 -23 57 -73 92 -117 84 -38 -7 -48 6 -58 76 -5 36 -2 52 14 79 12
18 20 44 18 56 -2 13 9 42 25 65 15 23 27 47 27 54 0 15 31 45 63 60 15 8 22
21 22 41 1 16 7 31 13 33 7 2 35 22 63 43 47 38 56 59 23 59 -8 0 -14 3 -14 8
0 4 -22 15 -50 25 -54 19 -61 30 -31 47 26 13 34 13 25 -2 -4 -7 -3 -8 4 -4 7
4 20 2 29 -4 14 -9 14 -10 2 -7 -9 3 -22 1 -30 -4 -12 -7 -12 -9 1 -10 49 -6
83 -19 97 -38 11 -15 12 -14 13 2 0 11 8 17 23 17 12 1 33 7 47 15 31 17 20
21 -65 28 -63 5 -129 26 -107 34 6 3 10 8 7 13 -2 4 4 18 15 30 l20 23 33 -29
c17 -16 37 -33 42 -38 6 -5 -13 -6 -45 -3 -36 4 -46 3 -30 -3 14 -4 45 -9 70
-9 25 -1 56 -7 70 -14 21 -11 31 -11 58 0 19 8 42 11 53 8 13 -5 19 -2 19 10
0 9 -4 13 -10 10 -5 -3 -10 -1 -10 4 0 6 6 11 14 11 8 0 16 7 20 15 3 8 10 15
16 15 5 0 10 -7 10 -15 0 -8 -4 -15 -9 -15 -5 0 -11 -7 -15 -15 -5 -14 -2 -14
24 0 16 8 35 15 43 15 7 0 26 13 41 29 16 16 47 34 72 40 24 6 44 15 44 19 0
5 23 8 51 8 35 -1 54 4 62 15 7 10 34 18 68 22 63 6 102 25 94 45 -3 9 1 11
14 7 32 -10 132 -8 143 3 7 7 3 12 -10 16 -11 4 -29 28 -41 54 -17 39 -21 43
-22 22 -1 -14 -2 -29 -4 -35 -1 -5 -3 -15 -3 -20 -7 -43 -112 54 -112 103 0
13 -5 32 -11 43 -5 11 -9 30 -6 42 3 22 4 22 14 -3 l10 -25 7 23 c5 16 15 22
36 22 27 0 29 -4 40 -55 6 -30 15 -53 20 -50 5 3 4 20 -1 38 -11 40 -12 84 -1
72 5 -6 16 -39 26 -75 9 -36 24 -75 32 -87 7 -12 11 -29 8 -38 -5 -11 0 -18
16 -22 15 -4 20 -11 17 -25 -5 -17 0 -19 46 -18 115 4 147 11 153 36 7 26 30
39 37 20 3 -6 -1 -20 -8 -29 -10 -14 -14 -15 -18 -5 -4 8 -6 7 -6 -4 -1 -21 3
-22 30 -8 15 9 26 6 50 -10 20 -15 38 -20 54 -16 16 4 25 2 25 -5 0 -7 9 -9
24 -5 28 7 76 -12 131 -53 51 -38 108 -68 145 -76 16 -4 29 -10 28 -13 -3 -18
18 -45 58 -73 33 -23 44 -26 44 -14 0 8 5 15 10 15 6 0 10 -6 10 -13 0 -8 9
-22 20 -32 12 -11 20 -31 20 -50 0 -44 21 -70 50 -62 16 4 28 0 36 -11 12 -16
13 -16 14 0 0 9 -9 19 -19 23 -11 3 -22 12 -25 20 -7 20 8 19 24 0 7 -9 20
-13 29 -10 10 3 26 -3 38 -14 21 -20 29 -18 53 14 11 16 11 17 0 7 -17 -14
-44 -16 -35 -2 3 6 1 10 -4 10 -17 0 -13 19 9 42 11 12 20 29 20 37 0 11 -9 6
-26 -14 -14 -16 -22 -24 -18 -16 5 10 1 11 -15 6 -14 -4 -21 -2 -21 7 0 10 -2
11 -8 0 -12 -17 -36 -6 -52 23 -10 19 -10 27 -1 39 7 8 9 21 5 27 -4 7 -3 9 3
6 12 -8 31 13 62 72 14 26 19 42 11 39 -7 -2 -22 -23 -34 -46 -24 -48 -51 -57
-43 -15 6 31 -1 53 -15 53 -6 0 -8 -20 -6 -46 3 -45 3 -46 -24 -42 -16 3 -28
1 -28 -4 0 -4 -7 -8 -15 -8 -15 0 -21 21 -9 33 6 6 54 117 54 125 0 1 -5 2
-10 2 -6 0 -17 -18 -26 -40 -9 -22 -20 -40 -24 -40 -4 0 -7 -7 -6 -16 0 -9 -5
-19 -11 -21 -7 -3 -13 2 -13 10 0 20 -22 27 -37 12 -16 -17 13 -59 34 -51 11
5 13 2 9 -10 -4 -9 -2 -22 4 -29 8 -9 8 -15 0 -20 -5 -3 -10 -1 -10 6 0 6 -16
26 -35 45 -38 35 -43 51 -20 60 23 9 6 25 -20 18 -22 -5 -23 -3 -23 38 -1 23
-6 65 -12 93 -9 42 -9 51 4 61 17 12 22 34 8 34 -4 0 -14 -6 -21 -12 -9 -8
-11 -8 -8 -2 4 7 0 29 -9 50 -9 22 -19 34 -21 27 -5 -15 -43 15 -43 34 0 18
19 16 26 -2 4 -8 13 -15 21 -15 8 0 11 5 7 11 -4 7 -1 10 7 7 8 -3 13 -13 11
-23 -2 -9 1 -14 6 -11 5 3 22 -6 38 -20 23 -22 31 -25 47 -15 10 7 22 10 25 6
4 -3 0 -10 -7 -15 -12 -7 -12 -11 2 -24 9 -9 18 -15 19 -14 2 2 16 -6 32 -18
25 -18 27 -23 17 -42 -6 -12 -8 -22 -3 -22 21 0 22 45 2 61 -18 15 -18 18 -3
23 9 4 20 2 23 -5 6 -8 9 -7 13 2 4 12 7 11 16 -1 16 -22 13 -30 -6 -24 -16 5
-16 4 -3 -6 10 -8 11 -13 3 -16 -8 -4 -4 -16 10 -39 25 -39 37 -44 37 -16 0
29 17 35 30 11 6 -11 15 -20 21 -20 6 0 1 14 -11 30 -19 27 -50 45 -35 20 9
-15 -24 -25 -38 -11 -6 6 -7 14 -3 18 4 4 11 1 16 -7 7 -11 10 -12 10 -2 0 16
20 36 39 40 8 2 11 -3 8 -12 -4 -10 -1 -13 8 -9 8 3 18 -2 21 -11 7 -19 21
-21 27 -3 2 6 2 1 0 -12 -2 -13 4 -32 13 -42 25 -28 39 -23 19 7 -17 26 -17
38 0 26 16 -11 59 -74 74 -107 12 -27 14 -28 21 -10 4 12 2 28 -6 41 -8 11
-11 24 -7 27 3 4 -1 7 -10 7 -9 0 -17 4 -17 8 0 21 -159 182 -180 182 -5 0
-12 9 -15 20 -3 11 -12 20 -19 20 -7 0 -25 14 -41 30 -16 17 -35 30 -42 30 -7
0 -13 5 -13 11 0 5 -4 7 -10 4 -5 -3 -10 -1 -10 4 0 6 -3 10 -7 10 -27 -4 -45
4 -53 27 -6 14 -15 22 -20 19 -6 -4 -8 -10 -5 -15 3 -4 -4 -6 -15 -3 -11 3
-17 10 -13 16 3 6 1 7 -5 3 -6 -4 -23 -3 -39 0 -25 7 -25 8 -8 15 19 7 19 8
-2 8 -12 1 -24 7 -26 14 -3 7 -6 4 -6 -6 -1 -16 -3 -17 -16 -4 -8 8 -28 13
-45 12 -25 -2 -30 1 -30 19 0 17 2 18 10 6 5 -8 11 -12 14 -9 11 10 -11 29
-27 23 -9 -3 -14 -10 -11 -15 3 -5 -2 -9 -11 -9 -12 0 -15 6 -10 20 3 11 2 20
-3 20 -5 0 -9 7 -9 15 0 20 14 19 26 -2 6 -11 11 -13 11 -5 0 9 13 11 48 7 26
-3 75 -6 110 -6 57 -1 81 -11 50 -22 -7 -2 -1 -6 15 -9 15 -3 30 -1 33 3 3 5
-2 9 -10 9 -9 0 -16 4 -16 10 0 18 34 5 68 -24 17 -16 32 -34 32 -40 0 -7 -3
-8 -8 -1 -4 6 -20 16 -37 23 l-30 13 35 -30 c38 -33 63 -40 54 -16 -8 19 -5
19 51 -5 53 -23 65 -24 65 -10 0 6 -7 10 -16 10 -25 0 -84 31 -78 41 3 5 -1 6
-9 3 -18 -6 -74 40 -74 61 0 10 6 14 14 10 8 -3 24 -5 35 -5 17 0 18 -3 8 -15
-12 -14 -7 -20 14 -16 5 1 13 -4 17 -11 4 -7 11 -9 15 -5 4 4 -1 14 -12 23
-18 14 -18 15 6 9 14 -4 38 -16 53 -27 30 -21 48 -20 22 2 -8 7 -15 17 -15 22
0 10 55 -18 86 -45 22 -19 124 -61 124 -51 0 3 -20 14 -44 24 -47 21 -72 45
-58 54 13 8 83 -31 114 -64 15 -15 41 -34 58 -41 16 -8 30 -17 30 -21 0 -5 5
-8 12 -8 6 0 3 9 -7 20 -10 11 -22 20 -27 20 -5 0 -21 12 -36 27 l-26 26 27
-7 c18 -4 27 -2 27 5 0 7 9 4 22 -7 19 -15 20 -16 9 -1 -18 22 1 23 43 2 42
-22 67 -19 31 4 -16 10 -45 35 -64 54 -30 32 -32 37 -17 43 13 5 37 -14 96
-75 44 -44 85 -81 92 -81 7 1 -2 14 -21 30 -18 15 -31 33 -27 38 3 5 -1 15 -9
22 -8 7 -12 16 -9 21 3 5 -10 16 -30 24 -40 17 -55 35 -29 35 10 0 32 -12 49
-27 53 -49 61 -53 77 -47 13 5 13 8 -4 25 -10 10 -22 19 -26 19 -14 1 -56 40
-49 47 3 3 14 -1 23 -9 36 -30 43 -30 43 -1 0 28 -1 28 -64 28 -36 1 -62 -3
-60 -7 3 -4 -2 -8 -10 -8 -9 0 -16 3 -16 8 0 4 -148 7 -330 7 -221 0 -330 -3
-330 -10 0 -6 -10 -11 -22 -12 -13 0 -17 1 -10 4 6 3 12 9 12 14 0 15 -22 10
-37 -8 -14 -17 -14 -17 -9 -1 4 14 -1 17 -29 16 -41 -1 -48 -18 -7 -18 19 0
23 -3 13 -9 -18 -12 -51 -2 -51 15 0 9 -12 14 -34 14 -19 0 -41 3 -49 6 -11 4
-14 -2 -12 -20z m88 -20 c30 -23 1 -28 -35 -6 -32 19 -32 20 -8 20 14 -1 33
-7 43 -14z m517 -2 c0 -13 -47 -20 -65 -11 -19 10 -19 11 5 17 24 6 60 2 60
-6z m207 7 c18 -1 22 -6 20 -31 -2 -26 -5 -30 -22 -24 -11 3 -33 6 -50 5 -37
-1 -102 16 -110 29 -15 24 8 27 162 21z m-607 -22 c0 -6 -9 -8 -20 -4 -11 4
-20 2 -20 -4 0 -6 -4 -11 -8 -11 -5 0 -9 7 -9 15 0 10 10 15 29 15 15 0 28 -5
28 -11z m449 -29 c6 0 11 -4 11 -10 0 -14 -7 -13 -35 6 -14 9 -22 21 -18 27 4
6 11 4 18 -6 7 -10 17 -17 24 -17z m-784 10 c3 -5 17 -10 31 -10 13 0 24 -4
24 -9 0 -9 -68 -5 -100 5 -13 5 -13 6 0 14 20 13 37 12 45 0z m159 -8 c2 -4
-2 -15 -9 -25 -13 -18 -14 -18 -24 1 -8 15 -8 22 2 25 18 8 25 8 31 -1z m-229
-35 c0 -8 11 -10 30 -7 73 11 230 -2 252 -22 10 -9 38 -22 63 -29 119 -33 426
-207 368 -209 -23 0 -110 41 -124 59 -9 12 -12 11 -17 -3 -8 -20 -37 -21 -37
0 0 8 5 12 10 9 6 -3 10 -1 10 4 0 11 -16 14 -62 11 -14 -1 -29 4 -33 10 -4 6
-15 8 -26 5 -11 -4 -19 -2 -19 4 0 6 -15 11 -34 11 -19 0 -60 8 -93 18 -64 19
-79 20 -140 8 -34 -6 -47 -4 -70 13 -34 25 -111 29 -233 11 -47 -7 -99 -12
-116 -11 -18 0 -48 -6 -68 -14 -19 -8 -52 -15 -71 -15 -20 0 -69 -13 -108 -29
-40 -16 -89 -32 -110 -35 -21 -2 -55 -14 -75 -25 -20 -11 -57 -29 -81 -40 -23
-12 -55 -30 -69 -41 -14 -11 -44 -29 -66 -40 -66 -32 -168 -112 -211 -167 -22
-28 -61 -77 -87 -110 -25 -32 -52 -72 -59 -88 -7 -17 -26 -49 -41 -72 -15 -23
-28 -46 -28 -51 0 -5 -18 -27 -41 -48 -22 -22 -51 -60 -64 -85 -23 -45 -55
-72 -55 -46 0 17 22 76 43 114 9 18 16 36 16 40 -1 4 3 19 9 33 6 14 11 21 11
16 1 -12 51 54 51 67 0 6 8 16 18 23 15 12 14 13 -10 14 -16 0 -28 -5 -28 -11
0 -5 -5 -7 -10 -4 -12 7 6 28 32 38 10 3 15 12 12 20 -3 8 5 21 19 30 13 8 30
30 37 49 15 39 48 78 65 78 23 0 65 42 65 65 0 16 9 26 30 35 17 7 38 26 47
41 13 22 25 29 49 29 22 0 45 11 74 35 23 19 45 35 48 35 4 0 24 16 46 35 34
31 43 35 73 29 27 -5 41 -2 63 15 16 11 39 21 51 21 12 0 46 14 75 31 30 17
58 28 63 25 14 -9 99 20 141 48 29 19 46 24 73 19 19 -3 52 1 73 8 22 7 61 12
87 10 31 -1 57 4 73 14 18 12 33 13 64 6 34 -8 39 -7 30 5 -7 7 -9 18 -5 24 8
13 20 4 20 -13z m1005 -25 c-15 -5 -51 28 -44 40 3 5 17 -1 31 -14 14 -13 19
-24 13 -26z m-1406 7 c-10 -4 -32 -8 -48 -8 -16 -1 -26 -4 -22 -8 4 -4 -13
-13 -36 -20 -55 -16 -63 -16 -49 0 6 8 8 17 5 20 -4 3 2 6 12 6 11 0 46 6 79
14 59 14 98 11 59 -4z m11 -19 c-3 -5 -14 -10 -23 -10 -10 0 -29 -8 -42 -17
-14 -10 -25 -16 -25 -14 0 2 -19 -2 -43 -9 -81 -21 -65 -4 24 27 97 34 118 38
109 23z m-205 -65 c0 -10 -72 -35 -83 -28 -6 3 -7 1 -3 -5 5 -9 -6 -12 -38
-12 -25 0 -48 -4 -51 -10 -3 -5 0 -10 7 -11 7 0 2 -6 -11 -12 -19 -9 -25 -9
-29 1 -2 6 -10 12 -17 12 -7 0 -16 7 -19 16 -4 11 -1 14 12 10 9 -3 35 -1 57
5 22 6 48 11 58 12 9 1 17 4 17 8 0 3 14 6 31 7 17 0 34 3 37 6 7 7 32 8 32 1z
m570 -25 c0 -5 -7 -10 -17 -10 -28 0 -6 -12 31 -17 31 -4 35 -2 29 13 -4 12
-2 15 8 12 8 -3 13 -10 12 -16 -2 -6 4 -9 12 -5 13 4 15 -4 10 -53 -9 -93 -15
-124 -24 -124 -4 0 -7 -10 -7 -21 1 -12 -5 -24 -13 -27 -8 -3 -11 0 -7 6 3 6
2 13 -2 16 -5 3 -14 -6 -20 -19 -7 -14 -16 -25 -22 -25 -14 0 -13 10 5 43 19
38 33 163 16 153 -6 -4 -11 -13 -10 -19 1 -7 -1 -35 -6 -64 -6 -45 -11 -52
-34 -56 -14 -3 -27 -1 -29 3 -2 5 -9 7 -17 4 -16 -7 -63 39 -76 75 -6 14 -14
45 -18 68 l-8 41 43 -1 c24 0 44 -4 44 -9 0 -4 7 -8 16 -8 8 0 12 5 9 10 -3 6
1 10 10 10 8 0 18 7 21 15 7 17 44 21 44 5z m244 -35 c3 -8 1 -15 -4 -15 -6 0
-10 -4 -10 -10 0 -5 7 -7 15 -4 8 4 15 12 15 19 0 8 5 17 12 21 7 4 8 3 4 -4
-4 -7 -2 -12 3 -12 7 0 8 -6 2 -17 -5 -10 -14 -51 -20 -92 -8 -55 -17 -78 -34
-92 -14 -12 -17 -18 -8 -19 11 0 11 -3 1 -15 -18 -21 -25 -19 -26 10 -1 14
-11 33 -22 43 -19 16 -19 20 -7 62 7 25 16 56 19 70 6 25 6 25 -5 3 -7 -13
-16 -23 -20 -23 -10 0 8 61 22 74 9 8 10 6 6 -6 -5 -15 -4 -16 13 -5 11 6 20
15 20 19 0 14 18 8 24 -7z m-1074 -10 c0 -9 -9 -15 -22 -15 -17 0 -19 -3 -9
-9 15 -10 8 -15 -31 -25 -17 -4 -28 -2 -28 4 0 9 15 14 33 11 5 -1 7 4 5 11
-4 10 19 27 50 37 1 1 2 -6 2 -14z m941 -82 c-8 -14 -10 -8 -11 28 0 25 3 49
8 53 11 12 14 -62 3 -81z m-464 31 c6 -21 12 -60 12 -86 1 -26 6 -50 11 -53 6
-3 10 -15 10 -26 0 -10 5 -19 10 -19 6 0 10 -4 10 -10 0 -6 -10 -5 -25 2 -19
8 -28 8 -40 -2 -10 -8 -15 -9 -15 -1 0 6 -6 11 -13 11 -7 0 -21 15 -30 33 -8
17 -16 25 -16 16 -1 -9 10 -33 24 -53 28 -41 23 -49 -7 -11 -11 14 -24 22 -30
19 -6 -4 -8 -2 -5 3 4 6 -2 21 -13 33 -11 13 -20 27 -20 31 0 5 -10 17 -22 29
-12 11 -17 20 -11 20 8 0 9 10 2 32 -5 18 -9 33 -9 33 0 0 14 1 30 2 27 2 30
-1 30 -27 0 -17 5 -30 11 -30 8 0 9 13 5 40 -6 37 -5 40 21 46 16 3 33 7 38 9
21 7 30 -3 42 -41z m694 36 c6 0 7 -6 3 -12 -5 -10 -4 -10 6 -1 11 10 18 7 36
-12 29 -32 36 -31 30 1 -4 19 -1 25 11 22 9 -2 18 -9 21 -17 3 -9 0 -11 -9 -7
-8 4 -6 1 4 -7 11 -9 14 -16 7 -19 -7 -2 4 -10 23 -17 33 -13 35 -17 41 -72 5
-41 3 -68 -8 -93 -16 -37 -16 -39 -16 -56 0 -6 -11 -8 -24 -6 -14 2 -27 -1
-31 -7 -3 -7 -3 -2 -1 11 2 12 0 22 -5 22 -11 0 -1 68 11 85 14 18 22 75 11
75 -14 0 -28 -28 -37 -75 -4 -22 -14 -46 -21 -54 -22 -22 -34 3 -31 69 2 52 0
55 -23 58 -18 2 -20 0 -10 -7 12 -7 11 -14 -6 -43 -11 -18 -26 -32 -33 -30 -8
2 -11 -4 -7 -17 3 -15 0 -19 -14 -18 -11 1 -19 7 -19 15 0 24 21 54 35 48 9
-3 12 0 8 10 -3 7 -9 14 -14 14 -6 0 -5 8 1 19 5 11 10 42 10 69 0 53 6 66 28
57 7 -3 18 -5 23 -5z m-877 -111 c12 -31 33 -70 45 -88 30 -42 16 -62 -40 -56
-41 4 -77 25 -118 69 -13 14 -27 23 -31 21 -4 -3 -16 5 -26 18 l-19 22 23 -19
c26 -22 30 -11 5 16 -9 10 -14 21 -10 24 9 9 131 53 140 51 5 -1 18 -28 31
-58z m-410 9 c-3 -5 -10 -6 -15 -2 -6 3 -18 -1 -27 -9 -9 -8 -28 -17 -41 -20
-23 -6 -23 -5 -4 12 10 10 25 20 33 24 22 8 59 4 54 -5z m1066 -18 c0 -20 -5
-30 -15 -30 -18 0 -20 31 -3 48 17 17 18 16 18 -18z m-797 -76 c42 -42 77 -80
77 -86 0 -6 7 -8 15 -4 8 3 15 1 15 -4 0 -16 -21 -22 -35 -10 -8 7 -15 9 -15
4 0 -5 -5 -1 -11 9 -6 9 -14 15 -18 12 -5 -2 -32 20 -61 51 -29 30 -54 53 -57
50 -5 -5 31 -50 70 -85 31 -29 34 -41 11 -41 -9 0 -12 5 -8 12 4 6 3 8 -4 5
-12 -8 -42 1 -42 13 0 4 -16 25 -35 46 -38 41 -42 71 -10 66 11 -2 17 -1 13 4
-6 5 8 34 16 34 1 0 37 -34 79 -76z m616 17 c14 -12 18 -22 11 -26 -12 -8 -60
20 -60 35 0 16 25 11 49 -9z m407 -13 c-2 -18 -4 -36 -5 -40 -2 -16 -19 -7
-24 12 -3 11 -2 20 3 20 4 0 10 9 13 20 8 32 17 23 13 -12z m-1156 -10 c12
-13 27 -30 35 -39 8 -9 15 -19 15 -23 0 -11 -49 28 -50 39 0 13 -40 38 -47 31
-9 -8 60 -84 76 -85 14 -1 111 -59 111 -67 0 -2 -10 -9 -22 -15 -21 -11 -22
-11 -10 4 11 13 10 15 -7 10 -15 -4 -30 4 -51 27 -20 21 -28 26 -24 14 4 -14
0 -13 -15 6 -12 14 -27 31 -33 39 -35 39 -47 65 -35 73 20 13 36 9 57 -14z
m-25 -81 c19 -26 35 -49 35 -52 0 -3 -10 -5 -22 -5 -26 0 -128 68 -128 86 0
23 17 24 36 3 11 -12 37 -35 59 -52 36 -27 34 -25 -12 23 -43 44 -51 56 -41
68 11 12 14 12 25 -4 7 -11 29 -40 48 -67z m1373 -17 c1 -37 -2 -60 -9 -60 -5
0 -7 4 -4 10 3 6 -1 7 -9 4 -11 -4 -16 0 -16 10 0 9 4 16 9 16 6 0 8 9 6 19
-4 23 4 61 14 61 3 0 7 -27 9 -60z m-1493 0 c10 -11 20 -18 22 -16 9 9 107
-44 109 -58 4 -28 -29 -17 -68 21 -49 48 -50 29 -1 -21 l38 -38 -57 5 c-41 3
-68 13 -102 37 l-47 31 32 30 c37 34 50 36 74 9z m1735 -136 c0 -3 -7 -13 -16
-21 -12 -13 -18 -13 -24 -4 -5 9 -10 10 -14 3 -4 -6 -14 -8 -23 -5 -12 5 -6
10 23 19 48 15 54 16 54 8z m-1895 -78 c30 -14 55 -30 55 -36 0 -8 -6 -8 -21
0 -16 9 -23 8 -32 -3 -12 -15 -92 -32 -107 -22 -9 6 30 85 42 85 4 0 32 -11
63 -24z m1900 -73 c0 -14 -5 -23 -13 -23 -10 0 -13 8 -10 25 3 15 1 22 -5 18
-6 -4 -8 0 -4 11 4 10 7 23 8 29 1 19 22 -36 24 -60z m-2177 25 c9 -9 8 -16
-5 -30 -14 -16 -43 -25 -43 -13 0 10 24 55 30 55 3 0 11 -5 18 -12z m203 -81
c-5 -5 -31 -12 -57 -15 -36 -4 -45 -2 -39 7 4 7 18 11 31 8 13 -2 24 0 24 4 0
5 -9 9 -20 9 -11 0 -20 4 -20 9 0 4 20 4 45 -2 28 -7 42 -14 36 -20z m-62 -43
c46 -9 38 -24 -13 -24 -43 0 -63 10 -49 24 8 8 22 8 62 0z m-50 -60 c17 -4 31
-10 31 -15 0 -4 -21 -18 -47 -30 -47 -20 -103 -40 -103 -35 0 6 76 86 81 86 4
0 21 -3 38 -6z m2345 -35 c-7 -12 24 -89 36 -89 5 0 10 -7 13 -14 4 -10 1 -13
-8 -10 -7 3 -16 12 -19 20 -3 9 -10 13 -14 10 -5 -3 -9 0 -10 7 0 7 -4 29 -8
50 -5 26 -3 37 5 37 7 0 9 -5 5 -11z m-2363 -46 c-12 -8 -31 -13 -44 -11 -19
4 -18 6 13 20 41 18 61 12 31 -9z m104 -302 c-6 -5 -20 -12 -32 -16 -17 -5
-23 -2 -23 9 0 11 10 16 32 16 19 0 28 -4 23 -9z"/>
<path d="M670 2203 c0 -6 7 -16 15 -23 9 -7 13 -15 10 -18 -3 -3 4 -12 16 -20
32 -23 30 -10 -7 32 -19 22 -34 35 -34 29z"/>
<path d="M2957 2823 c-4 -3 -7 -20 -7 -37 0 -23 6 -34 25 -43 20 -9 25 -8 25
2 0 7 -7 18 -15 25 -8 7 -15 16 -15 21 0 5 7 9 15 9 8 0 15 7 15 15 0 15 -31
21 -43 8z"/>
<path d="M1223 2768 c-23 -30 -22 -35 3 -30 19 3 22 7 12 13 -10 7 -9 9 5 9 9
0 17 5 17 10 0 14 -26 12 -37 -2z"/>
<path d="M2134 2709 c-24 -8 -41 -29 -25 -29 6 0 11 5 11 11 0 6 7 3 16 -5 8
-9 27 -16 40 -16 14 0 23 -4 20 -8 -6 -10 30 -9 40 1 4 4 14 7 23 7 13 0 13
-2 2 -9 -9 -6 -10 -11 -2 -15 6 -4 11 -2 11 3 0 22 20 10 21 -11 0 -22 1 -22
8 -3 7 16 2 24 -28 42 -20 13 -45 23 -57 23 -11 0 -24 3 -28 7 -10 10 -29 11
-52 2z"/>
<path d="M1022 2693 c2 -10 -1 -18 -7 -18 -17 -1 -55 -25 -55 -35 0 -6 8 -10
18 -10 14 0 15 2 2 10 -9 6 -10 10 -3 10 6 0 15 -4 18 -10 13 -21 25 -10 14
13 -9 18 -9 20 2 10 7 -7 18 -13 24 -13 5 0 3 5 -5 10 -10 6 -11 10 -2 10 6 0
12 9 12 20 0 11 -5 20 -10 20 -6 0 -10 -8 -8 -17z"/>
<path d="M2506 2703 c-9 -9 94 -103 113 -103 8 0 12 1 10 3 -2 2 -29 27 -60
55 -31 29 -59 49 -63 45z"/>
<path d="M2947 2683 c-8 -7 23 -32 41 -33 10 0 10 5 2 20 -11 20 -31 26 -43
13z"/>
<path d="M2380 2626 c0 -6 8 -12 18 -12 9 0 28 -4 42 -8 24 -7 24 -7 5 7 -29
20 -65 28 -65 13z"/>
<path d="M640 2606 c0 -8 9 -24 19 -37 20 -24 22 -15 7 29 -8 24 -26 30 -26 8z"/>
<path d="M2576 2235 c4 -8 2 -15 -4 -15 -6 0 -13 6 -15 13 -4 7 -6 8 -6 1 -1
-6 6 -17 14 -24 10 -9 15 -9 15 -1 0 6 7 11 15 11 15 0 19 -11 16 -39 -2 -7 2
-10 8 -6 17 10 13 30 -12 53 -27 26 -39 28 -31 7z"/>
<path d="M110 1970 c0 -4 14 -19 32 -36 l31 -29 -22 32 c-19 27 -19 32 -5 26
11 -4 15 -3 10 5 -7 11 -46 13 -46 2z"/>
<path d="M1518 1843 l3 -118 -68 -57 -68 -58 -132 0 -133 0 0 -120 0 -120 139
0 139 0 -5 84 c-8 124 -2 143 64 201 34 29 58 44 61 37 2 -8 28 -12 77 -12
l74 0 6 -37 c10 -58 27 -88 20 -36 -3 23 -8 48 -11 57 -5 13 3 16 50 16 l56 0
0 140 0 140 -137 0 -138 0 3 -117z m234 70 c9 -34 8 -168 -1 -182 -8 -13 -70
-18 -168 -13 l-33 2 0 98 c0 54 2 101 5 104 3 3 48 6 99 7 83 2 94 0 98 -16z
m-394 -417 c2 -54 -1 -82 -9 -87 -19 -11 -177 -10 -184 2 -8 12 -8 146 0 159
3 4 47 7 97 7 l93 -2 3 -79z"/>
<path d="M2608 1889 c-10 -5 -18 -15 -18 -21 0 -6 3 -8 7 -5 3 4 12 2 20 -4
10 -9 13 -6 13 15 0 29 1 29 -22 15z"/>
<path d="M142 1838 c-7 -7 -12 -19 -12 -27 0 -11 4 -10 20 4 21 19 26 35 12
35 -4 0 -13 -5 -20 -12z"/>
<path d="M1620 1450 l0 -105 120 0 120 0 0 105 0 105 -120 0 -120 0 0 -105z
m207 20 c4 -88 2 -90 -82 -90 -94 0 -97 5 -87 123 2 17 11 18 85 15 l82 -3 2
-45z"/>
<path d="M2675 1391 c-17 -7 -16 -9 10 -13 33 -7 48 -2 40 13 -7 11 -22 11
-50 0z"/>
<path d="M2201 1219 c-1 -9 7 -19 17 -22 9 -2 26 -8 37 -13 19 -7 19 -7 3 9
-9 9 -23 17 -31 17 -9 0 -18 6 -20 13 -4 7 -6 6 -6 -4z"/>
<path d="M842 1190 c-10 -27 -9 -29 8 -18 10 7 18 20 17 30 -2 27 -14 22 -25
-12z"/>
<path d="M895 1200 c-5 -9 7 -15 62 -35 6 -2 17 3 23 11 10 12 8 14 -14 14
-15 0 -36 5 -46 10 -13 7 -21 7 -25 0z"/>
<path d="M2133 1198 c2 -7 0 -22 -6 -32 -7 -15 -6 -18 4 -14 11 4 14 -4 13
-33 -2 -30 1 -36 14 -32 12 5 14 1 10 -20 -4 -23 -3 -25 9 -15 21 17 12 54
-12 50 -12 -2 -16 0 -9 5 13 9 -4 103 -19 103 -5 0 -7 -6 -4 -12z"/>
<path d="M2056 1192 c-4 -7 -3 -12 3 -12 6 0 13 -11 17 -25 3 -14 10 -22 15
-19 13 8 11 19 -9 45 -13 15 -21 19 -26 11z"/>
<path d="M2337 1184 c-3 -3 -1 -18 5 -33 5 -14 11 -34 14 -45 2 -10 10 -26 19
-36 8 -9 15 -22 15 -28 0 -7 9 -12 20 -12 l21 0 -21 22 c-19 20 -24 33 -21 51
0 4 -3 7 -9 7 -5 0 -10 6 -10 14 0 20 -26 67 -33 60z"/>
<path d="M755 1164 c-11 -8 -19 -17 -17 -20 5 -9 -28 -63 -50 -81 -23 -19 -48
-56 -48 -70 0 -5 5 0 11 10 5 9 17 17 25 17 8 0 20 11 26 25 6 14 22 28 35 31
17 5 21 10 14 22 -6 11 -2 26 16 49 27 35 21 42 -12 17z"/>
<path d="M802 1118 c0 -39 -5 -55 -19 -66 -20 -15 -80 -43 -100 -46 -7 -1 -16
-5 -19 -9 -13 -13 31 -7 60 8 35 18 39 19 30 3 -4 -7 5 -2 21 12 l28 25 -6
-30 -6 -30 11 27 c11 25 47 45 118 63 22 5 23 4 8 -7 -9 -7 -31 -21 -49 -31
-17 -10 -29 -20 -27 -23 7 -7 109 57 103 65 -2 4 5 8 16 8 14 1 19 -5 19 -25
1 -23 2 -25 11 -9 5 9 7 22 4 27 -3 6 6 15 20 20 39 15 47 12 41 -12 l-6 -23
11 23 c12 23 39 31 39 11 0 -6 -16 -29 -35 -52 -19 -22 -35 -45 -35 -51 0 -6
4 -5 9 3 7 11 9 11 13 0 3 -8 11 0 20 21 8 19 26 44 38 55 13 11 20 14 16 8
-4 -7 -2 -13 3 -13 6 0 11 6 11 14 0 8 7 17 16 20 8 3 12 2 9 -4 -9 -14 -2
-13 31 6 28 15 28 16 -35 10 -51 -5 -62 -3 -58 8 7 17 -54 29 -65 13 -4 -7
-11 -7 -22 2 -11 9 -30 11 -60 7 -37 -6 -46 -4 -56 11 -8 13 -13 14 -16 6 -7
-15 -60 -17 -69 -3 -14 23 -24 7 -23 -42z m83 11 c-4 -6 -13 -8 -21 -5 -8 3
-14 -1 -14 -8 0 -8 -7 -17 -16 -20 -9 -4 -15 -9 -12 -12 3 -2 21 4 39 15 19
11 50 22 69 25 19 3 45 8 58 10 12 3 22 0 22 -5 0 -9 -15 -18 -42 -23 -7 -2
-20 -5 -28 -8 -62 -21 -116 -38 -122 -38 -6 0 -2 41 7 68 2 6 18 12 35 12 20
0 29 -4 25 -11z"/>
<path d="M1904 1158 c-2 -3 1 -10 8 -14 6 -4 13 -3 15 3 2 6 13 8 25 5 14 -3
19 -1 14 6 -7 12 -55 12 -62 0z"/>
<path d="M678 1113 c-44 -59 -58 -86 -58 -110 1 -10 10 0 21 23 11 23 36 60
55 82 19 22 34 43 34 46 0 17 -20 1 -52 -41z"/>
<path d="M1820 1134 c0 -8 -4 -12 -10 -9 -12 8 -13 -5 0 -25 7 -11 11 -9 19
12 5 14 16 28 23 31 7 3 3 6 -9 6 -15 1 -23 -5 -23 -15z"/>
<path d="M1581 1120 c-30 -26 -63 -27 -55 -2 5 14 3 14 -10 -2 -21 -26 -20
-35 4 -29 24 6 25 -4 5 -31 -8 -11 -15 -31 -14 -45 0 -22 3 -20 15 14 8 22 19
44 24 49 15 15 24 -2 10 -19 -9 -11 -10 -19 -3 -26 7 -7 13 -2 17 16 4 14 11
23 17 19 6 -3 5 4 -3 16 -9 16 -10 24 -2 27 6 2 20 10 30 18 15 11 16 14 4 14
-8 0 -26 -9 -39 -19z"/>
<path d="M1694 1125 c-17 -8 -36 -21 -44 -30 -10 -12 -15 -13 -21 -4 -4 8 -14
9 -25 4 -17 -8 -17 -9 4 -13 18 -3 22 -8 16 -25 -5 -16 4 -11 30 18 32 35 36
37 31 15 -4 -14 -15 -31 -26 -39 -10 -7 -19 -20 -19 -27 0 -8 -10 -14 -25 -14
-31 0 -33 -15 -2 -18 16 -1 28 8 41 28 9 17 21 30 27 30 5 0 9 7 9 15 0 9 11
27 25 41 38 38 33 42 -21 19z"/>
<path d="M2006 1115 c-4 -16 -10 -36 -12 -44 -2 -7 1 -20 7 -27 7 -8 7 -14 1
-14 -5 0 -15 7 -22 15 -13 15 -30 12 -30 -6 0 -6 6 -7 13 -4 6 4 4 0 -5 -8
-19 -15 -24 -37 -9 -37 5 0 15 10 24 23 l15 22 10 -25 c10 -24 11 -24 11 -2 1
12 6 22 13 22 6 0 5 7 -5 18 -12 13 -14 21 -6 29 6 6 9 23 7 39 l-4 29 -8 -30z"/>
<path d="M2067 1122 c1 -8 3 -16 3 -18 0 -2 6 -4 14 -4 9 0 12 -7 9 -19 -3
-11 -11 -17 -19 -14 -9 3 -12 -2 -9 -17 2 -12 -2 -23 -10 -27 -29 -11 -16 -31
20 -30 33 1 52 17 20 17 -8 0 -15 9 -15 20 0 13 5 18 15 14 11 -5 13 -2 9 10
-3 9 -1 23 6 31 10 12 8 16 -13 24 -14 5 -27 13 -29 18 -3 4 -3 2 -1 -5z"/>
<path d="M1247 1123 c-4 -3 -2 -12 4 -19 7 -8 6 -14 -2 -20 -8 -4 -9 -3 -5 4
9 15 -18 16 -47 1 -36 -19 -107 -79 -107 -91 0 -6 9 -3 20 7 12 11 30 20 42
22 12 2 36 13 54 24 19 11 38 18 44 14 5 -3 10 -2 10 3 0 6 11 13 25 16 14 4
25 10 25 15 0 5 -9 7 -20 4 -14 -4 -20 0 -20 11 0 16 -12 21 -23 9z"/>
<path d="M1930 1120 c0 -5 -8 -10 -18 -10 -11 0 -18 -8 -19 -21 -3 -31 -33
-73 -45 -61 -6 6 -4 22 6 46 8 20 11 36 7 36 -10 0 -31 -46 -31 -69 0 -10 -9
-21 -20 -24 -11 -3 -20 -1 -20 5 0 5 -9 7 -19 3 -17 -5 -21 0 -27 30 -3 19
-10 38 -15 41 -9 5 -2 -46 12 -83 8 -22 29 -32 29 -15 0 10 47 7 74 -4 13 -5
17 -4 13 3 -4 6 0 16 8 23 10 9 15 9 15 1 0 -6 7 -11 15 -11 18 0 20 17 3 22
-8 3 -8 9 0 24 10 18 11 18 20 -5 7 -19 10 -21 15 -8 3 9 0 18 -9 21 -8 3 -14
12 -14 21 0 18 16 20 23 3 4 -10 6 -10 6 -1 1 7 8 10 19 6 15 -6 15 -4 -2 15
-21 24 -26 27 -26 12z"/>
<path d="M1340 1106 c0 -7 -7 -19 -15 -26 -8 -7 -15 -23 -15 -35 0 -13 -6 -26
-12 -28 -8 -3 -6 -6 5 -6 15 -1 22 19 19 50 -1 4 6 6 16 5 11 -1 16 5 14 18
-2 10 2 23 10 27 10 7 9 9 -4 9 -10 0 -18 -6 -18 -14z"/>
<path d="M1392 1108 c-7 -7 -12 -18 -12 -26 0 -8 -10 -31 -22 -51 -15 -24 -17
-32 -6 -23 13 10 17 10 21 0 4 -10 6 -10 6 1 1 8 9 20 19 27 10 8 12 13 5 14
-14 0 -18 30 -4 30 5 0 11 9 14 20 6 23 -3 26 -21 8z"/>
<path d="M1458 1053 c5 -51 8 -60 18 -50 9 9 -5 97 -15 97 -5 0 -6 -21 -3 -47z"/>
<path d="M2300 1070 c-8 -5 -12 -11 -10 -13 3 -2 16 -12 30 -21 l25 -18 -28 5
c-18 3 -34 -1 -44 -11 -22 -23 -3 -26 59 -11 35 8 53 9 55 2 5 -13 43 -5 43 9
0 5 -8 7 -19 3 -12 -3 -21 0 -25 10 -3 9 -10 14 -15 11 -17 -11 -63 13 -57 29
6 17 6 18 -14 5z"/>
<path d="M2593 1059 c-16 -16 -17 -33 -2 -24 6 4 16 -1 23 -10 11 -16 13 -16
13 -1 0 9 -4 16 -8 16 -4 0 -9 7 -11 16 -2 12 -5 13 -15 3z"/>
<path d="M1240 1035 c-7 -8 -18 -15 -25 -15 -7 0 -19 -7 -26 -17 -13 -15 -11
-16 16 -9 17 4 33 14 38 21 4 8 15 12 25 9 13 -5 14 -4 3 4 -11 8 -11 10 0 15
10 4 10 6 -2 6 -9 1 -22 -6 -29 -14z"/>
<path d="M2519 1033 c-1 -4 -1 -12 1 -18 1 -5 -4 -4 -11 3 -18 17 -29 15 -29
-7 0 -15 7 -18 35 -18 19 1 35 5 35 10 0 12 -30 41 -31 30z"/>
<path d="M510 914 c0 -21 56 -144 66 -144 6 0 22 28 34 63 13 34 25 68 27 75
3 6 0 12 -5 12 -6 0 -21 -27 -33 -60 -19 -54 -39 -71 -39 -35 0 23 -31 95 -41
95 -5 0 -9 -3 -9 -6z"/>
<path d="M657 913 c-13 -12 -8 -145 5 -141 7 3 11 29 11 71 0 67 -4 83 -16 70z"/>
<path d="M714 906 c-3 -8 -4 -25 -2 -37 2 -19 12 -25 46 -32 32 -6 42 -13 42
-28 0 -15 -7 -19 -35 -19 -22 0 -37 6 -44 17 -14 25 -25 9 -11 -16 8 -16 20
-21 55 -21 39 0 45 3 51 25 10 38 -1 52 -45 60 -31 5 -41 11 -41 26 0 25 55
27 69 2 5 -10 13 -14 17 -10 5 4 3 16 -2 25 -15 23 -92 29 -100 8z"/>
<path d="M846 913 c-11 -12 -6 -109 7 -127 10 -13 24 -17 57 -14 l45 3 3 73
c2 50 -1 72 -8 67 -5 -3 -10 -33 -10 -66 l0 -60 -37 3 -38 3 3 57 c3 52 -6 77
-22 61z"/>
<path d="M1010 858 c-13 -35 -25 -69 -27 -75 -3 -7 0 -13 5 -13 6 0 14 9 17
20 5 15 15 20 40 20 25 0 35 -5 40 -20 3 -11 11 -20 16 -20 11 0 11 3 0 32 -5
13 -17 44 -26 71 -9 26 -22 47 -29 47 -8 0 -24 -28 -36 -62z m55 -10 c6 -25 5
-28 -19 -28 -29 0 -31 7 -14 45 13 29 23 23 33 -17z"/>
<path d="M1129 916 c-2 -2 -3 -36 -1 -75 l4 -71 49 0 c27 0 49 5 49 10 0 6
-18 10 -40 10 l-40 0 0 65 c0 57 -6 75 -21 61z"/>
<path d="M1310 844 l0 -75 53 3 52 3 1 60 c1 33 -3 66 -8 73 -6 6 -30 12 -54
12 l-44 0 0 -76z m85 31 c0 -15 -8 -21 -32 -23 -30 -3 -33 -1 -33 23 0 24 3
26 33 23 24 -2 32 -8 32 -23z m3 -62 c3 -20 -1 -23 -32 -23 -32 0 -36 3 -36
26 0 23 3 25 33 22 24 -2 33 -8 35 -25z"/>
<path d="M1450 845 c0 -43 4 -75 10 -75 6 0 10 11 10 25 0 22 4 25 35 25 31 0
35 -3 35 -25 0 -14 4 -25 9 -25 12 0 11 122 -1 138 -6 6 -30 12 -54 12 l-44 0
0 -75z m85 25 c0 -21 -5 -26 -32 -28 -31 -3 -33 -1 -33 28 0 29 2 31 33 28 27
-2 32 -7 32 -28z"/>
<path d="M1604 863 c-12 -32 -24 -66 -29 -75 -4 -12 -3 -18 5 -18 6 0 14 9 17
20 8 30 68 28 84 -2 23 -42 20 -2 -5 63 -13 35 -30 65 -37 67 -9 1 -22 -19
-35 -55z m46 15 c0 -7 3 -23 6 -35 5 -20 2 -23 -20 -23 -30 0 -29 -2 -15 39
11 31 29 42 29 19z"/>
<path d="M1720 845 c0 -43 4 -75 10 -75 6 0 10 32 10 75 0 43 -4 75 -10 75 -6
0 -10 -32 -10 -75z"/>
<path d="M1770 845 c0 -43 4 -75 10 -75 6 0 10 28 10 63 l0 62 38 -62 c50 -84
62 -82 62 12 0 47 -4 75 -11 75 -7 0 -10 -21 -7 -60 1 -33 1 -60 -2 -60 -3 0
-20 27 -39 60 -47 83 -61 79 -61 -15z"/>
<path d="M1928 895 c-15 -33 1 -51 53 -60 30 -5 39 -11 37 -23 -5 -24 -59 -28
-75 -6 -16 22 -31 9 -17 -14 15 -23 86 -28 103 -8 8 9 11 26 7 39 -4 19 -16
26 -48 33 -53 11 -59 37 -10 42 22 2 34 -2 38 -12 3 -9 10 -13 15 -10 5 3 5
13 -1 25 -8 14 -21 19 -51 19 -32 0 -41 -4 -51 -25z"/>
<path d="M2045 910 c-4 -6 5 -10 19 -10 25 0 26 -2 26 -65 0 -37 4 -65 10 -65
6 0 10 28 10 65 0 63 1 65 26 65 14 0 23 4 19 10 -3 6 -28 10 -55 10 -27 0
-52 -4 -55 -10z"/>
<path d="M2171 901 c-15 -27 -14 -93 2 -115 10 -13 24 -17 57 -14 41 3 45 6
54 36 6 20 6 48 0 70 -9 35 -11 37 -56 40 -38 2 -49 -1 -57 -17z m94 -56 l0
-50 -40 0 c-39 0 -40 1 -43 39 -5 58 2 68 45 64 l38 -3 0 -50z"/>
<path d="M2317 913 c-11 -10 -8 -143 3 -143 6 0 10 11 10 25 0 22 4 25 35 25
31 0 35 -3 35 -25 0 -14 4 -25 9 -25 14 0 12 133 -2 142 -15 10 -81 10 -90 1z
m83 -43 c0 -28 -3 -30 -35 -30 -32 0 -35 2 -35 30 0 28 3 30 35 30 32 0 35 -2
35 -30z"/>
<path d="M2457 914 c-11 -11 -8 -144 3 -144 6 0 10 28 11 63 l0 62 22 -59 c12
-33 27 -61 33 -63 7 -2 20 18 30 44 26 70 34 73 27 9 -4 -39 -2 -56 6 -56 7 0
11 26 11 76 0 90 -14 94 -45 16 -11 -28 -23 -54 -27 -57 -3 -3 -15 20 -25 51
-19 56 -32 72 -46 58z"/>
<path d="M530 605 l0 -75 33 0 c40 0 57 15 57 51 0 37 -26 62 -57 54 -21 -5
-23 -3 -17 20 4 15 2 25 -5 25 -7 0 -11 -27 -11 -75z m68 -23 c3 -28 0 -32
-22 -32 -29 0 -44 33 -25 56 20 24 44 12 47 -24z"/>
<path d="M800 605 c0 -43 4 -75 10 -75 6 0 10 16 10 35 0 33 2 35 35 35 19 0
35 5 35 11 0 6 -14 9 -32 7 -28 -2 -34 1 -36 20 -3 20 1 22 37 22 23 0 41 5
41 10 0 6 -22 10 -50 10 l-50 0 0 -75z"/>
<path d="M1370 605 c0 -80 17 -104 22 -32 2 35 7 43 26 45 20 3 22 -1 22 -42
0 -25 5 -46 10 -46 6 0 10 20 10 44 0 49 -18 71 -50 61 -17 -5 -20 -2 -20 19
0 14 -4 26 -10 26 -6 0 -10 -32 -10 -75z"/>
<path d="M1540 677 c0 -2 4 -17 10 -33 5 -16 14 -48 20 -71 16 -62 35 -54 50
19 14 66 17 64 39 -19 16 -58 35 -54 50 10 6 28 14 62 17 75 4 12 2 22 -4 22
-6 0 -17 -28 -25 -62 l-14 -63 -12 45 c-21 78 -22 81 -34 77 -7 -2 -19 -30
-28 -63 l-16 -59 -14 59 c-8 33 -20 61 -27 64 -6 2 -12 2 -12 -1z"/>
<path d="M1954 605 c0 -41 4 -75 8 -75 5 0 8 12 8 28 l0 27 24 -30 c13 -16 28
-27 32 -22 4 4 -3 18 -16 32 l-23 25 23 25 c29 31 15 33 -17 3 l-23 -21 0 41
c0 23 -4 42 -8 42 -5 0 -8 -34 -8 -75z"/>
<path d="M2230 605 l0 -75 50 0 c28 0 50 5 50 10 0 6 -18 10 -40 10 l-40 0 0
65 c0 37 -4 65 -10 65 -6 0 -10 -32 -10 -75z"/>
<path d="M2350 605 l0 -75 50 0 c28 0 50 5 50 10 0 6 -19 10 -42 10 l-43 0 3
65 c3 42 0 65 -7 65 -7 0 -11 -28 -11 -75z"/>
<path d="M2472 668 c-17 -17 -16 -113 2 -127 21 -17 87 -10 100 11 14 23 -1
36 -17 14 -9 -12 -23 -17 -42 -14 -29 3 -30 5 -30 53 0 48 1 50 30 53 19 3 33
-2 42 -14 16 -22 31 -9 17 14 -13 21 -84 28 -102 10z"/>
<path d="M630 630 c0 -5 9 -32 20 -60 17 -44 18 -51 5 -56 -20 -8 -19 -26 1
-22 10 2 26 29 40 68 26 72 28 80 16 80 -5 0 -15 -19 -22 -42 l-13 -43 -18 43
c-17 40 -29 53 -29 32z"/>
<path d="M932 632 c-8 -5 -12 -15 -11 -23 1 -8 -1 -22 -6 -32 -11 -26 12 -47
52 -47 l34 0 -3 53 c-3 47 -5 52 -28 55 -14 1 -31 -2 -38 -6z m53 -23 c10 -15
4 -18 -27 -12 -15 3 -25 9 -22 14 7 12 41 11 49 -2z m3 -46 c2 -9 -7 -13 -27
-13 -30 0 -39 9 -24 24 11 10 46 3 51 -11z"/>
<path d="M1048 633 c-14 -3 -18 -15 -18 -54 0 -27 5 -49 10 -49 6 0 10 18 10
39 0 46 17 62 37 35 14 -18 14 -18 11 6 -3 25 -18 32 -50 23z"/>
<path d="M1138 633 c-14 -3 -18 -15 -18 -54 0 -27 5 -49 10 -49 6 0 10 18 10
39 0 45 17 62 35 38 16 -22 27 -10 14 14 -10 19 -18 21 -51 12z"/>
<path d="M1217 633 c-11 -10 -8 -103 3 -103 6 0 10 25 10 55 0 56 -1 60 -13
48z"/>
<path d="M1266 625 c-22 -22 -10 -43 27 -47 17 -2 33 -9 35 -17 4 -11 -4 -13
-37 -8 -36 4 -40 3 -30 -9 8 -10 26 -14 48 -12 31 3 36 7 36 28 0 21 -6 26
-33 30 -43 7 -37 26 7 23 28 -2 31 0 21 12 -16 19 -54 19 -74 0z"/>
<path d="M1762 631 c-9 -5 -12 -24 -10 -52 l3 -44 40 0 c39 0 40 1 43 40 3 29
-1 43 -14 52 -20 15 -43 16 -62 4z m56 -48 c3 -29 0 -33 -22 -33 -31 0 -40 13
-32 46 5 19 12 25 29 22 17 -2 23 -11 25 -35z"/>
<path d="M1878 633 c-14 -3 -18 -15 -18 -54 0 -27 5 -49 10 -49 6 0 10 18 10
40 0 43 24 66 40 39 5 -7 12 -10 16 -6 9 8 -15 37 -30 36 -6 -1 -19 -3 -28 -6z"/>
<path d="M2055 626 c-26 -19 -12 -44 26 -48 18 -2 35 -9 37 -17 4 -11 -4 -13
-36 -9 -32 5 -39 3 -35 -8 6 -15 60 -19 81 -5 25 16 9 46 -27 51 -41 6 -55 30
-17 30 13 0 28 -5 31 -10 4 -6 11 -8 16 -4 15 9 -10 34 -35 34 -12 0 -31 -6
-41 -14z"/>
<path d="M541 427 c-12 -16 -15 -34 -13 -94 2 -54 22 -57 22 -3 0 29 4 40 15
40 8 0 15 5 15 10 0 6 -7 10 -15 10 -8 0 -15 5 -15 10 0 6 7 13 15 16 8 4 15
10 15 15 0 14 -26 11 -39 -4z"/>
<path d="M1050 360 c0 -52 4 -79 10 -75 6 3 10 24 10 45 0 42 9 54 34 44 11
-4 16 -19 16 -52 0 -28 4 -42 9 -36 5 5 7 30 4 57 -5 45 -7 47 -38 47 -28 0
-32 3 -28 19 3 10 0 22 -6 25 -8 5 -11 -18 -11 -74z"/>
<path d="M1521 440 c-8 -12 -7 -152 1 -156 4 -3 8 7 8 22 l0 28 30 -29 c33
-32 41 -21 11 16 -18 22 -18 25 -4 42 9 9 13 20 9 24 -4 4 -16 -3 -26 -17
l-19 -25 -4 50 c-2 28 -5 48 -6 45z"/>
<path d="M600 374 c0 -13 3 -14 15 -4 16 13 45 7 45 -9 0 -5 -15 -11 -32 -13
-25 -2 -34 -8 -36 -25 -4 -27 28 -46 63 -37 24 6 26 10 23 53 -3 45 -4 46 -40
49 -30 3 -38 0 -38 -14z m58 -51 c5 -17 -26 -29 -40 -15 -6 6 -7 15 -3 22 9
14 37 9 43 -7z"/>
<path d="M710 335 c0 -37 4 -54 11 -50 6 4 7 19 4 36 -4 18 -2 36 6 45 10 13
14 12 32 -3 19 -17 19 -17 16 2 -3 14 -13 21 -37 23 l-32 3 0 -56z"/>
<path d="M800 335 c0 -35 4 -54 10 -50 6 3 10 23 10 44 0 47 8 56 33 34 19
-17 19 -17 16 2 -3 14 -13 21 -37 23 l-32 3 0 -56z"/>
<path d="M890 334 c0 -34 4 -53 10 -49 6 3 10 28 10 56 0 27 -4 49 -10 49 -5
0 -10 -25 -10 -56z"/>
<path d="M937 383 c-4 -3 -7 -14 -7 -24 0 -18 19 -29 51 -29 10 0 19 -7 19
-15 0 -18 -31 -20 -48 -3 -6 6 -15 8 -19 4 -11 -11 28 -37 51 -34 49 8 46 68
-4 68 -16 0 -30 5 -30 10 0 17 29 23 45 10 17 -14 31 -8 20 9 -7 12 -68 15
-78 4z"/>
<path d="M1153 376 c3 -8 9 -31 13 -50 8 -44 32 -48 41 -6 8 43 20 45 27 5 9
-49 31 -44 45 9 13 54 13 56 3 56 -5 0 -13 -17 -18 -37 l-10 -38 -10 34 c-13
46 -32 51 -40 12 -9 -44 -21 -47 -28 -6 -4 19 -12 35 -18 35 -5 0 -8 -6 -5
-14z"/>
<path d="M1317 384 c-4 -4 -7 -24 -7 -44 0 -48 21 -67 58 -54 24 8 27 15 27
54 0 44 -1 45 -35 48 -20 2 -39 0 -43 -4z m58 -44 c0 -28 -4 -35 -20 -35 -13
0 -21 8 -23 23 -5 34 5 54 25 50 13 -2 18 -13 18 -38z"/>
<path d="M1420 340 c0 -27 5 -50 10 -50 6 0 10 18 10 39 0 40 25 65 36 36 4
-8 10 -13 15 -10 19 12 -5 35 -37 35 l-34 0 0 -50z"/>
<path d="M1603 374 c-8 -21 21 -44 54 -44 13 0 23 -5 23 -10 0 -17 -31 -24
-51 -12 -23 15 -29 15 -29 2 0 -16 40 -32 65 -26 50 13 37 66 -16 66 -16 0
-29 5 -29 10 0 17 27 22 49 10 17 -9 21 -8 21 5 0 22 -78 21 -87 -1z"/>
<path d="M1786 374 c-17 -45 5 -94 44 -94 23 0 52 28 44 41 -3 6 -11 3 -18 -6
-20 -27 -51 -15 -54 21 -3 36 17 50 48 34 27 -14 34 -12 20 5 -17 20 -76 20
-84 -1z"/>
<path d="M1896 366 c-10 -40 3 -75 30 -82 37 -9 55 12 52 60 -3 39 -5 41 -39
44 -32 3 -37 0 -43 -22z m64 -1 c7 -9 10 -25 6 -41 -10 -37 -50 -30 -54 10 -5
40 25 59 48 31z"/>
<path d="M2010 340 c0 -28 5 -50 10 -50 6 0 10 18 10 39 0 24 5 41 14 44 20 8
26 -2 26 -45 0 -21 5 -38 10 -38 6 0 10 18 10 39 0 24 5 41 14 44 22 9 37 -17
30 -50 -4 -18 -1 -33 5 -37 7 -5 11 10 11 48 l0 55 -70 0 -70 0 0 -49z"/>
</g>
</svg>
